<svg version="1.1" xmlns="http://www.w3.org/2000/svg" xmlns:xlink="http://www.w3.org/1999/xlink" data-browser="Chrome[42.0]" preserveAspectRatio="xMidYMid meet" viewBox="0 0 199 221"><g id="logo__item--business" class="logo__item">
                <g class="logo__item__inner" transform="translate(1.1328125 216.694505050376) scale(1 1) rotate(0 0 0)">
                    <text dy="" dominant-baseline="auto" alignment-baseline="auto" font-family="'Montserrat-Bold'" font-size="32px" fill="#00A2E8" letter-spacing="0" font-weight="normal" font-style="normal">DiveTheSite</text>
                </g>
            </g><g id="logo__item--logo_0" class="logo__item">
    <g class="logo__item__inner" transform="translate(-9.095317743976238 -21) scale(2.187767929618844 2.187767929618844) rotate(0 0 0)">
        
<g>
	
		<linearGradient id="SVGID_1_" gradientUnits="userSpaceOnUse" x1="-480.0034" y1="576.2539" x2="-470.6856" y2="576.2539" gradientTransform="matrix(0 -14.2438 -14.2438 0 8257.6553 -6718.5269)">
		<stop offset="0" style="stop-color:#3A6791"></stop>
		<stop offset="0.5" style="stop-color:#4478B6"></stop>
		<stop offset="1" style="stop-color:#84BBD8"></stop>
	</linearGradient>
	<path fill="#00A2E8" d="M22.555,76.75c-5.714-10.106-5.513-22.009-0.546-29.86c4.604-7.294,14.307-8.52,20.011-3.884   c5.572,4.497,4.959,13.761,9.867,20.214c5.342,7.016,16.234,7.802,23.278,4.343c8.397-4.12,12.33-11.597,12.612-20.171   c0.563-16.976-12.95-34.927-35.818-36.034c-0.721-0.042-1.438-0.06-2.147-0.06c-22.106,0-38.394,16.973-38.394,37.499   C11.418,59.349,15.111,69.817,22.555,76.75z"></path>
	<path fill="#00A2E8" d="M88.87,57.282c-8.067,24.34-62.793,25.314-67.961,2.164c-0.829,9.362,4.757,18.035,14.077,22.023   c12.358,5.304,30.159,1.614,40.35-5.541c-6.104,6.793-13.869,11.304-22.476,12.348c-7.962,0.961-17.745-0.146-22.659-5.729   c1.601,2.848,6.369,6.098,11.52,7.678c7.388,2.283,16.562,1.524,23.734-1.162C79.783,83.704,86.729,69.595,88.87,57.282   L88.87,57.282z"></path>
	<path fill="#00A2E8" d="M38.689,56.774c1.413-2.005,3.076-1.406,4.068,0.208c1.002,1.601,1.622,2.401,3.477,2.478   c-1.984-2.38-1.657-8.191-4.096-11.324c-1.719-2.206-4.148-3.717-7.67-3.717c-0.801,0-1.656,0.077-2.575,0.244   c-5.687,1.016-8.753,7.134-7.625,12.633c2.909,14.15,24.633,16.475,36.983,14.609c-6.271-0.709-15.17-2.353-20.387-6.96   C38.79,63.122,36.914,59.286,38.689,56.774z"></path>
</g>

    </g>
</g></svg>